Coordinates
version=1
nRows=19
nColumns=24
inDegrees=yes

Units are S.I. units (second, meters, Newtons, ...)
Angles are in degrees.

endheader
time	pelvis_tilt	pelvis_list	pelvis_rotation	pelvis_tx	pelvis_ty	pelvis_tz	hip_flexion_r	hip_adduction_r	hip_rotation_r	knee_angle_r	ankle_angle_r	subtalar_angle_r	mtp_angle_r	hip_flexion_l	hip_adduction_l	hip_rotation_l	knee_angle_l	ankle_angle_l	subtalar_angle_l	mtp_angle_l	lumbar_extension	lumbar_bending	lumbar_rotation
      3.49000000	     44.95614667	     -3.27011914	     -0.27008448	      0.57072432	      1.08534157	     -0.34128965	     27.42811628	     -7.98725003	     -7.91717016	    -73.34247537	    -28.34023081	    -18.83101906	      0.00000000	     30.60042893	    -13.68741929	     -3.92023567	    -19.75346160	    -38.39294157	      9.15159999	      0.00000000	      0.00000000	      0.00000000	      0.00000000
      3.50000000	     45.00097391	     -3.28354040	     -0.32615236	      0.57082887	      1.08542852	     -0.34122126	     27.37416100	     -7.95122485	     -7.88208514	    -73.34292743	    -28.34405690	    -18.83403664	      0.00000000	     30.42315303	    -13.79920413	     -3.89510345	    -20.12777293	    -37.83480476	      9.74714153	      0.00000000	      0.00000000	      0.00000000	      0.00000000
      3.51000000	     45.06419320	     -3.31650427	     -0.38146245	      0.57099521	      1.08556643	     -0.34109952	     27.29560046	     -7.89662292	     -7.86000204	    -73.34273089	    -28.34891299	    -18.84383838	      0.00000000	     30.22641271	    -13.96558571	     -4.09871842	    -20.66065835	    -36.95284054	     10.25323275	      0.00000000	      0.00000000	      0.00000000	      0.00000000
      3.52000000	     45.13890062	     -3.36737745	     -0.41980258	      0.57114455	      1.08571993	     -0.34094995	     27.19717725	     -7.82659979	     -7.85745767	    -73.33843874	    -28.35263227	    -18.86053054	      0.00000000	     30.00344429	    -14.19145134	     -4.56193453	    -21.39515788	    -35.72019358	     10.56791749	      0.00000000	      0.00000000	      0.00000000	      0.00000000
      3.53000000	     45.21920331	     -3.42925298	     -0.43512903	      0.57121565	      1.08585722	     -0.34080968	     27.08419971	     -7.74696795	     -7.87389684	    -73.32887155	    -28.35321142	    -18.88394916	      0.00000000	     29.74804821	    -14.47434446	     -5.26642771	    -22.35503666	    -34.18335497	     10.59645224	      0.00000000	      0.00000000	      0.00000000	      0.00000000
      3.54000000	     45.30487856	     -3.49554224	     -0.43748893	      0.57124639	      1.08599036	     -0.34068081	     26.96004203	     -7.66381006	     -7.90241891	    -73.31670590	    -28.34950549	    -18.91357101	      0.00000000	     29.46161853	    -14.79954191	     -6.14789862	    -23.53506849	    -32.46364507	     10.27051353	      0.00000000	      0.00000000	      0.00000000	      0.00000000
      3.55000000	     45.39839575	     -3.56323423	     -0.44573076	      0.57133434	      1.08614676	     -0.34054271	     26.82726492	     -7.58159543	     -7.93317925	    -73.30702278	    -28.34160709	    -18.94839274	      0.00000000	     29.15125771	    -15.14369741	     -7.11491699	    -24.90327662	    -30.73576443	      9.56543282	      0.00000000	      0.00000000	      0.00000000	      0.00000000
      3.56000000	     45.49860460	     -3.63161510	     -0.47282400	      0.57152197	      1.08632014	     -0.34040103	     26.69081626	     -7.50269650	     -7.95772183	    -73.30396507	    -28.33075150	    -18.98689166	      0.00000000	     28.82294293	    -15.48551379	     -8.07447451	    -26.41353276	    -29.18908568	      8.51183441	      0.00000000	      0.00000000	      0.00000000	      0.00000000
      3.57000000	     45.59872399	     -3.70043564	     -0.51702814	      0.57176173	      1.08647043	     -0.34029378	     26.55957005	     -7.42808262	     -7.97222631	    -73.30824394	    -28.31881004	    -19.02712688	      0.00000000	     28.47845212	    -15.81359519	     -8.95261937	    -28.02146671	    -27.98396230	      7.19874945	      0.00000000	      0.00000000	      0.00000000	      0.00000000
      3.58000000	     45.68953001	     -3.76991839	     -0.56525469	      0.57198322	      1.08656185	     -0.34025474	     26.44412978	     -7.35819118	     -7.97834559	    -73.31727074	    -28.30756658	    -19.06695794	      0.00000000	     28.11834029	    -16.12575348	     -9.70256719	    -29.69726793	    -27.21686378	      5.76651483	      0.00000000	      0.00000000	      0.00000000	      0.00000000
      3.59000000	     45.76346259	     -3.84038207	     -0.60356817	      0.57215670	      1.08658994	     -0.34029140	     26.35245127	     -7.29331168	     -7.98156376	    -73.32735782	    -28.29801667	    -19.10428576	      0.00000000	     27.74674289	    -16.42326194	    -10.30024167	    -31.43183523	    -26.90424755	      4.38963940	      0.00000000	      0.00000000	      0.00000000	      0.00000000
      3.60000000	     45.81649065	     -3.91041451	     -0.62574965	      0.57229584	      1.08657451	     -0.34038012	     26.28680981	     -7.23387635	     -7.98804029	    -73.33595602	    -28.28989309	    -19.13722008	      0.00000000	     27.37339173	    -16.70580262	    -10.73347631	    -33.23575309	    -26.98797128	      3.25197701	      0.00000000	      0.00000000	      0.00000000	      0.00000000
      3.61000000	     45.84792885	     -3.97573226	     -0.63497294	      0.57242981	      1.08654099	     -0.34046620	     26.24437251	     -7.18130011	     -8.00145515	    -73.34247396	    -28.28158343	    -19.16413154	      0.00000000	     27.01177196	    -16.96942800	    -10.99261295	    -35.13298156	    -27.35804175	      2.51817897	      0.00000000	      0.00000000	      0.00000000	      0.00000000
      3.62000000	     45.85971706	     -4.03061757	     -0.63966970	      0.57258134	      1.08651133	     -0.34050208	     26.22049438	     -7.13896883	     -8.02130100	    -73.34778294	    -28.27055384	    -19.18359794	      0.00000000	     26.67554868	    -17.20687008	    -11.06737477	    -37.15217428	    -27.88414555	      2.30616480	      0.00000000	      0.00000000	      0.00000000	      0.00000000
      3.63000000	     45.85581369	     -4.07103061	     -0.64782862	      0.57275768	      1.08649700	     -0.34050475	     26.21168383	     -7.11177603	     -8.04343189	    -73.35336506	    -28.25421892	    -19.19430353	      0.00000000	     26.37609362	    -17.40869089	    -10.95054830	    -39.31840773	    -28.44657315	      2.66549382	      0.00000000	      0.00000000	      0.00000000	      0.00000000
      3.64000000	     45.84116772	     -4.09668136	     -0.66333374	      0.57295127	      1.08649513	     -0.34054327	     26.21609519	     -7.10335724	     -8.06258483	    -73.36087834	    -28.23092327	    -19.19502056	      0.00000000	     26.12195493	    -17.56496009	    -10.64529847	    -41.64752366	    -28.95920441	      3.56606106	      0.00000000	      0.00000000	      0.00000000	      0.00000000
      3.65000000	     45.81997016	     -4.11099113	     -0.68548512	      0.57314744	      1.08649050	     -0.34066459	     26.23228454	     -7.11283131	     -8.07533690	    -73.37212610	    -28.20053000	    -19.18483302	      0.00000000	     25.91881593	    -17.66815377	    -10.17136231	    -44.14419619	    -29.38077811	      4.90014372	      0.00000000	      0.00000000	      0.00000000	      0.00000000
      3.66000000	     45.79446198	     -4.11984317	     -0.71092127	      0.57333542	      1.08646241	     -0.34085828	     26.25833305	     -7.13382391	     -8.08168207	    -73.38880335	    -28.16428037	    -19.16362123	      0.00000000	     25.76901984	    -17.71720158	     -9.56648381	    -46.80307781	    -29.71412141	      6.49835767	      0.00000000	      0.00000000	      0.00000000	      0.00000000
      3.67000000	     45.76550641	     -4.12987193	     -0.73626347	      0.57351836	      1.08640321	     -0.34108486	     26.29208496	     -7.15633933	     -8.08454893	    -73.41175258	    -28.12406278	    -19.13257733	      0.00000000	     25.67140445	    -17.72094314	     -8.88222850	    -49.61133122	    -29.99541100	      8.15698577	      0.00000000	      0.00000000	      0.00000000	      0.00000000
